<svg width="20" height="20" viewBox="0 0 20 20" fill="none" xmlns="http://www.w3.org/2000/svg">
<path d="M10.9309 0.0551416L0.306274 9.327C0.210135 9.41081 0.133032 9.51443 0.0801895 9.63083C0.0273467 9.74723 -9.31976e-07 9.87369 -9.26351e-07 10.0016C-9.20726e-07 10.1296 0.0273468 10.2561 0.0801896 10.3725C0.133032 10.4889 0.210135 10.5925 0.306274 10.6763L10.9309 19.9454C10.9629 19.9734 11.0023 19.9915 11.0443 19.9977C11.0863 20.0038 11.1291 19.9977 11.1678 19.98C11.2064 19.9624 11.2392 19.9339 11.2622 19.8981C11.2852 19.8622 11.2975 19.8204 11.2975 19.7777L11.2975 17.515C11.2975 17.3864 11.242 17.2635 11.1448 17.1769L4.13669 11.0618L19.7778 11.0618C19.9 11.0618 20 10.9612 20 10.8383L20 9.16218C20 9.03926 19.9 8.93869 19.7778 8.93869L4.13669 8.93869L11.1448 2.82357C11.242 2.73976 11.2975 2.61684 11.2975 2.48555L11.2975 0.222756C11.2975 0.032793 11.0753 -0.070569 10.9309 0.0551416Z" fill="black"/>
</svg>
