<svg width="20" height="20" viewBox="0 0 20 20" fill="none" xmlns="http://www.w3.org/2000/svg">
<path d="M9.06911 19.9449L19.6937 10.673C19.7899 10.5892 19.867 10.4856 19.9198 10.3692C19.9727 10.2528 20 10.1263 20 9.99835C20 9.8704 19.9727 9.74393 19.9198 9.62753C19.867 9.51113 19.7899 9.40752 19.6937 9.32371L9.06911 0.0546433C9.03709 0.0266341 8.99773 0.0084728 8.95574 0.00232313C8.91374 -0.00382655 8.87087 0.00229442 8.83223 0.0199568C8.7936 0.0376193 8.76082 0.0660788 8.73781 0.101945C8.71481 0.137812 8.70253 0.179574 8.70246 0.222257V2.48505C8.70246 2.61355 8.75801 2.73647 8.85523 2.82307L15.8633 8.93819H0.222214C0.0999964 8.93819 7.81921e-08 9.03876 7.28498e-08 9.16168L0 10.8378C-5.34231e-09 10.9607 0.0999963 11.0613 0.222214 11.0613L15.8633 11.0613L8.85523 17.1764C8.75801 17.2602 8.70246 17.3832 8.70246 17.5145V19.7772C8.70246 19.9672 8.92467 20.0706 9.06911 19.9449Z" fill="black"/>
</svg>
