<svg width="30" height="30" viewBox="0 0 30 30" fill="none" xmlns="http://www.w3.org/2000/svg">
<path fill-rule="evenodd" clip-rule="evenodd" d="M9.36402 5.66974C6.3779 7.14722 3.95106 8.37182 3.97103 8.39101C3.99101 8.4102 4.95804 8.89353 6.12002 9.46512L8.23271 10.5043L13.6585 7.72439C16.6426 6.19549 19.0837 4.93236 19.0831 4.91753C19.0825 4.90275 18.2226 4.46978 17.1721 3.95543C15.631 3.20083 15.217 3.0167 15.0278 3.00183C14.7988 2.98385 14.6649 3.04697 9.36402 5.66974ZM15.7013 8.72774C11.2435 11.0112 10.292 11.5149 10.3552 11.5584C10.3975 11.5875 11.4621 12.1189 12.721 12.7393L15.0101 13.8672L18.2782 12.2472C20.0756 11.3562 22.5698 10.1205 23.8207 9.50125L26.0951 8.37529L23.6391 7.16082C22.2883 6.4929 21.1699 5.94721 21.1536 5.94819C21.1375 5.94918 18.6839 7.19996 15.7013 8.72774ZM3.00011 15.4085C3.00109 20.5937 3.00513 20.8537 3.08771 21.0328C3.13531 21.136 3.22455 21.266 3.28598 21.3217C3.34742 21.3773 5.79288 22.6729 8.72033 24.2008C11.6478 25.7286 14.0588 26.9883 14.0781 27C14.0975 27.0116 14.1133 24.4159 14.1133 21.2315V15.4419L11.7408 14.2721C10.436 13.6288 9.34915 13.0954 9.3257 13.0868C9.30066 13.0776 9.28308 13.7342 9.28308 14.6792C9.28308 16.2219 9.27904 16.2955 9.18361 16.4928C8.94402 16.988 8.25386 17.1321 7.84442 16.7724C7.50044 16.4702 7.50339 16.4922 7.50086 14.2052L7.49861 12.164L5.33091 11.099C4.13868 10.5133 3.12626 10.0201 3.08114 10.003C3.0033 9.9735 2.99912 10.25 3.00011 15.4085ZM21.4525 12.7026L15.9657 15.4162L15.937 17.5206C15.9212 18.678 15.9054 21.2773 15.9018 23.2969C15.8967 26.2083 15.9075 26.968 15.954 26.9651C15.9862 26.9631 18.4816 25.6694 21.4994 24.0902L26.9861 21.2189L26.998 15.6004C27.0046 12.5103 26.9941 9.98354 26.9746 9.98547C26.9551 9.98739 24.4702 11.2101 21.4525 12.7026Z" fill="#B1404B"/>
</svg>
