<svg width="40" height="40" viewBox="0 0 40 40" fill="none" xmlns="http://www.w3.org/2000/svg">
<path fill-rule="evenodd" clip-rule="evenodd" d="M20.7708 7.51167L7.515 15.9808L7.51083 15.9842L7.51 15.9867C7.5037 15.9997 7.50028 16.0139 7.5 16.0283C7.5 16.0508 7.50417 16.0667 7.50833 16.0742C7.50833 16.0775 7.51 16.0783 7.51 16.0792H7.51083L7.51583 16.0842L20.7717 25.8183L34.1508 16.0842L34.1567 16.0792L34.1575 16.0775L34.1592 16.075C34.165 16.0605 34.1676 16.0448 34.1667 16.0292C34.1665 16.0144 34.1631 15.9999 34.1567 15.9867L34.1558 15.9842L34.1517 15.9817L20.7717 7.51167H20.7708ZM21.6325 12.7508L29.4067 17.6717L27.9567 18.7267L20.7708 14.1783L13.655 18.725L12.215 17.6667L19.9042 12.755C20.1618 12.5893 20.4614 12.5008 20.7677 12.5001C21.074 12.4994 21.3741 12.5864 21.6325 12.7508V12.7508Z" fill="#B1404B"/>
<path fill-rule="evenodd" clip-rule="evenodd" d="M0 0H40V40H0V0ZM6.6175 14.5767C5.61083 15.22 5.56417 16.7183 6.52917 17.4267L19.8158 27.185C20.3867 27.6033 21.1492 27.605 21.7208 27.1892L35.1308 17.4317C36.1042 16.7233 36.0575 15.215 35.0433 14.5733L21.6325 6.08417C21.3741 5.9197 21.074 5.83269 20.7677 5.83343C20.4614 5.83417 20.1618 5.92263 19.9042 6.08833L6.61667 14.5767H6.6175ZM7.6975 20.5533L9.1375 21.6117L7.515 22.6475C7.51354 22.6485 7.51215 22.6496 7.51083 22.6508L7.51 22.6533C7.5037 22.6663 7.50028 22.6806 7.5 22.695C7.5 22.7175 7.50417 22.7333 7.50833 22.7408C7.50833 22.7442 7.51 22.7458 7.51 22.7458L7.51583 22.7508L20.7717 32.485L34.105 22.785C33.4767 24.5892 33.9542 23.2275 34.11 22.78L34.1508 22.7508L34.1567 22.7458L34.1575 22.7442L34.1592 22.7417C34.165 22.7271 34.1676 22.7115 34.1667 22.6958C34.1665 22.6811 34.1631 22.6666 34.1567 22.6533L34.1558 22.6508L34.11 22.78L34.1042 22.7842L34.1517 22.6483L32.5017 21.6033L33.9517 20.5492L35.0433 21.24C36.0575 21.8817 36.1042 23.39 35.1308 24.0983L21.7217 33.8558C21.15 34.2725 20.3875 34.27 19.8167 33.8517L6.52917 24.0933C5.56417 23.385 5.61083 21.8867 6.6175 21.2433L7.6975 20.5533V20.5533Z" fill="#B1404B"/>
</svg>
