<svg width="30" height="30" viewBox="0 0 30 30" fill="none" xmlns="http://www.w3.org/2000/svg">
<path fill-rule="evenodd" clip-rule="evenodd" d="M12.1765 1.27712V5.51613H11.8503C11.5824 5.51613 11.4982 5.54091 11.3797 5.65472C11.2353 5.79325 11.2353 5.79342 11.2353 7.00956V8.22581H7.28876L7 8.50293V28.7229L7.28876 29H22.7112L23 28.7229V8.50293L22.7112 8.22581H18.7647V7.00956C18.7647 5.79342 18.7647 5.79325 18.6203 5.65472C18.5018 5.54091 18.4176 5.51613 18.1497 5.51613H17.8235V1.27712L17.5348 1H12.4652L12.1765 1.27712ZM16.8824 5.51613H13.1176V1.90323H16.8824V5.51613ZM14.6738 3.39665C14.382 3.67665 14.5888 4.16129 15 4.16129C15.2418 4.16129 15.4706 3.94175 15.4706 3.70968C15.4706 3.4776 15.2418 3.25806 15 3.25806C14.8854 3.25806 14.7648 3.30927 14.6738 3.39665ZM22.0588 28.0968H7.94118V9.12903H22.0588V28.0968ZM8.88235 10.3094V26.9164L9.17112 27.1935H20.8289L21.1176 26.9164V10.3094L20.8289 10.0323H9.17112L8.88235 10.3094Z" fill="#B1404B"/>
</svg>
