<svg width="30" height="30" viewBox="0 0 30 30" fill="none" xmlns="http://www.w3.org/2000/svg">
<path fill-rule="evenodd" clip-rule="evenodd" d="M7 3.52371V5.04741L15 5.03457L23 5.02172V3.52371V2.02569L15 2.01285L7 2V3.52371ZM8.61769 7.32297C8.61769 8.72907 8.64808 8.92066 8.9383 9.346C9.06281 9.52845 9.86827 10.2045 12.0594 11.9658C13.6837 13.2714 15.024 14.3397 15.0379 14.3397C15.0518 14.3398 16.3933 13.2715 18.0189 11.9658C20.2457 10.1775 21.0154 9.53124 21.14 9.346C21.428 8.91762 21.4581 8.72602 21.4581 7.32297V6.06271H15.0379H8.61769V7.32297ZM12.2515 17.7991C10.7395 18.9755 9.39312 20.0438 9.25961 20.1731C9.1257 20.3027 8.94437 20.5555 8.85519 20.7369L8.69352 21.0657L8.67735 22.5015L8.66122 23.9373H15.1102H21.5592V22.7279C21.5592 21.1533 21.4982 20.8362 21.0968 20.3236C20.9563 20.1443 15.1382 15.6601 15.0459 15.6601C15.021 15.6601 13.7635 16.6227 12.2515 17.7991ZM7 26.4763V28L15 27.9872L23 27.9743V26.4763V24.9783L15 24.9654L7 24.9526V26.4763Z" fill="#B1404B"/>
</svg>
