<svg width="255" height="297" viewBox="0 0 255 297" fill="none" xmlns="http://www.w3.org/2000/svg">
<path d="M0 39.3492V167.648C2.96346 180.325 10.0758 208.604 14.8173 220.305L15.0632 220.912C20.9304 235.397 27.6957 252.099 51.076 284.246C74.7837 316.843 59.6178 289.261 195.414 174.753C331.21 60.2448 193.148 114.156 187.918 81.5584C182.688 48.9612 178.505 55.6478 160.724 34.3343C142.943 13.0207 153.228 43.1104 140.851 46.0358C128.475 48.9612 135.622 27.2298 126.557 8.42369C117.492 -10.3824 114.006 13.0207 113.483 19.7073C112.96 26.3939 110.345 29.7372 106.684 34.3343C103.024 38.9313 98.84 39.3492 94.1333 19.7073C89.4267 0.0654327 86.4632 -1.60619 81.2336 0.901279C76.0039 3.40875 76.0039 19.7073 70.4257 8.42369C64.8474 -2.85993 60.4894 10.5133 55.957 19.7073C51.4247 28.9014 36.2588 43.9462 27.3684 19.7073C20.2561 0.316181 6.15934 24.7223 0 39.3492Z" fill="#8A2BE2"/>
</svg>
