<svg width="16" height="16" viewBox="0 0 16 16" fill="none" xmlns="http://www.w3.org/2000/svg">
<path d="M14.9267 4.18007C14.2114 2.95436 13.241 1.98396 12.0154 1.26866C10.7896 0.553318 9.45142 0.19574 7.99987 0.19574C6.5485 0.19574 5.20987 0.553428 3.98434 1.26866C2.75862 1.98393 1.7883 2.95436 1.07292 4.18007C0.357652 5.40575 0 6.7442 0 8.19538C0 9.93859 0.508586 11.5061 1.52601 12.8984C2.54333 14.2908 3.85756 15.2542 5.46858 15.7889C5.65611 15.8237 5.79493 15.7992 5.88519 15.7161C5.97549 15.6328 6.02058 15.5285 6.02058 15.4037C6.02058 15.3829 6.01879 15.1954 6.01533 14.8412C6.01175 14.487 6.01007 14.178 6.01007 13.9143L5.77048 13.9558C5.61772 13.9837 5.42502 13.9956 5.19236 13.9922C4.95981 13.989 4.7184 13.9646 4.46844 13.9193C4.21838 13.8744 3.9858 13.7702 3.77051 13.607C3.55532 13.4439 3.40257 13.2302 3.31227 12.9665L3.20811 12.7268C3.13868 12.5673 3.02937 12.39 2.88004 12.1957C2.73071 12.0012 2.57971 11.8693 2.42695 11.7999L2.35402 11.7477C2.30542 11.713 2.26033 11.6711 2.21863 11.6226C2.17696 11.574 2.14577 11.5254 2.12493 11.4767C2.10407 11.428 2.12136 11.3881 2.177 11.3568C2.23264 11.3254 2.33318 11.3102 2.47908 11.3102L2.68733 11.3413C2.82623 11.3692 2.99803 11.4523 3.20296 11.5913C3.40778 11.7301 3.57616 11.9107 3.70812 12.1328C3.86792 12.4176 4.06044 12.6346 4.28624 12.7839C4.51186 12.9332 4.73934 13.0078 4.96846 13.0078C5.19758 13.0078 5.39546 12.9904 5.5622 12.9558C5.72875 12.9211 5.88501 12.8689 6.03091 12.7995C6.0934 12.334 6.26356 11.9765 6.54124 11.7265C6.14547 11.6849 5.78964 11.6223 5.47358 11.539C5.1577 11.4556 4.83128 11.3202 4.49453 11.1326C4.1576 10.9451 3.8781 10.7124 3.65595 10.4348C3.43376 10.157 3.25141 9.79229 3.10916 9.34102C2.96684 8.88956 2.89566 8.36879 2.89566 7.77856C2.89566 6.93815 3.17002 6.22299 3.71863 5.63268C3.46163 5.00085 3.4859 4.29255 3.79148 3.50786C3.99288 3.44529 4.29153 3.49224 4.68731 3.64843C5.08316 3.80469 5.37299 3.93855 5.55709 4.04954C5.74119 4.16048 5.88869 4.2545 5.99982 4.33075C6.64577 4.15027 7.31237 4.06001 7.9998 4.06001C8.68723 4.06001 9.35397 4.15027 9.99996 4.33075L10.3958 4.08087C10.6664 3.91414 10.9861 3.76135 11.3539 3.62245C11.722 3.48363 12.0034 3.4454 12.1979 3.50797C12.5103 4.2927 12.5381 5.00096 12.2811 5.63279C12.8297 6.2231 13.1041 6.93844 13.1041 7.77866C13.1041 8.3689 13.0327 8.89132 12.8906 9.34623C12.7483 9.80122 12.5644 10.1656 12.3388 10.44C12.1129 10.7144 11.8316 10.9453 11.4949 11.1327C11.158 11.3202 10.8315 11.4556 10.5156 11.539C10.1996 11.6224 9.84377 11.685 9.44799 11.7267C9.80897 12.0391 9.98949 12.5322 9.98949 13.2057V15.4034C9.98949 15.5282 10.0329 15.6325 10.1198 15.7158C10.2066 15.7989 10.3437 15.8234 10.5312 15.7886C12.1424 15.254 13.4567 14.2905 14.4739 12.8981C15.4911 11.5058 15.9999 9.93829 15.9999 8.19509C15.9995 6.74409 15.6417 5.40575 14.9267 4.18007Z" fill="black"/>
</svg>
