<svg width="16" height="16" viewBox="0 0 16 16" fill="none" xmlns="http://www.w3.org/2000/svg">
<g clip-path="url(#clip0)">
<path d="M3.54594 9.66898L2.989 11.7481L0.953406 11.7912C0.345063 10.6628 0 9.37186 0 7.99999C0 6.67339 0.322625 5.42239 0.8945 4.32086H0.894938L2.70719 4.65311L3.50106 6.45449C3.33491 6.93889 3.24434 7.45889 3.24434 7.99999C3.24441 8.58724 3.35078 9.14989 3.54594 9.66898Z" fill="#FBBB00"/>
<path d="M15.8602 6.50549C15.9521 6.98943 16 7.48921 16 7.99999C16 8.57274 15.9398 9.13143 15.8251 9.67034C15.4357 11.5042 14.4181 13.1055 13.0084 14.2387L13.008 14.2382L10.7253 14.1218L10.4023 12.1051C11.3377 11.5565 12.0687 10.698 12.4537 9.67034H8.1759V6.50549H12.5161H15.8602Z" fill="#518EF8"/>
<path d="M13.0079 14.2383L13.0084 14.2387C11.6374 15.3407 9.89584 16 8.00002 16C4.95343 16 2.30465 14.2972 0.95343 11.7912L3.54596 9.66904C4.22155 11.4721 5.9609 12.7556 8.00002 12.7556C8.87649 12.7556 9.69762 12.5187 10.4022 12.1051L13.0079 14.2383Z" fill="#28B446"/>
<path d="M13.1063 1.84175L10.5147 3.9635C9.78547 3.50769 8.92347 3.24437 7.99997 3.24437C5.91469 3.24437 4.14281 4.58678 3.50106 6.4545L0.894908 4.32088H0.89447C2.22591 1.75384 4.9081 0 7.99997 0C9.94106 0 11.7208 0.691437 13.1063 1.84175Z" fill="#F14336"/>
</g>
<defs>
<clipPath id="clip0">
<rect width="16" height="16" fill="white"/>
</clipPath>
</defs>
</svg>
